<?xml version="1.0"?>
<svg xmlns="http://www.w3.org/2000/svg" id="Layer_1" data-name="Layer 1" viewBox="0 0 512 512" width="512" height="512"><path d="M499.638,203.961a6,6,0,0,0-8.33-3.617l-14.27,6.869-11.283-11.284,9.687-8.875a6,6,0,0,0-.88-9.517l-35.03-21.82a6,6,0,0,0-8.482,2.3L417.18,184.39l-9.654-4.548a6,6,0,0,0-8.186,3.354l-16,43.448c-6.264-2.01-11.732-1.771-15.763.729a67.744,67.744,0,0,0-8.333-2.335c-.125-.026-.251-.049-.377-.067-2.572-.369-5.117-.616-7.622-.766a74.108,74.108,0,0,0,2.039-17.465,63.4,63.4,0,0,0-.518-8.094c0-.041-.013-.082-.018-.123-.01-.064-.016-.127-.028-.191-2.949-22.389-17.889-42-41.254-54.39-1.423-10.972-19.409-15.678-33.473-17.682l11.739-32.248a6,6,0,0,0-2.12-6.912l-7.17-5.194-.178-42.551a6,6,0,0,0-6-5.975H256.546l-1.757-13.4a6,6,0,0,0-8.147-4.8l-22.71,8.94a6,6,0,0,0-3.672,6.826L225.077,53.7H218.06a6,6,0,0,0-5.83,7.423l15.959,65.382c-13.33,2.075-30.473,6.807-31.869,17.438a86.832,86.832,0,0,0-23.127,17.671,5.977,5.977,0,0,0-2.286,2.565,68.66,68.66,0,0,0-14.99,29.6c-7.51-7.006-16.776-12.108-29.04-11.275-3.141-7.6-6.188-19.329-1.006-22.449a13.012,13.012,0,0,1,2.691.8c3.239,1.19,9.982,3.668,15.488-2.837.108-.128.212-.261.309-.4a13.771,13.771,0,0,0,2.044-11.431,11.146,11.146,0,0,0-6.854-7.233l-.266-.105c-14.44-5.721-24.029-4.006-29.526-1.563-18.252,8.1-15.788,31.471-11.106,50.469-29.72,12.272-32.532,37.308-29.6,49.433,3.533,14.642-7.134,30.535-8.041,31.85a6,6,0,0,0,1.033,8.239,155.918,155.918,0,0,0-6.933,33.193H51.44V290.74a6,6,0,0,0-6-6H11a6,6,0,0,0-6,6v200.5a6,6,0,0,0,6,6H463.59a6,6,0,0,0,6-6V290.74a6,6,0,0,0-6-6H429.15a6,6,0,0,0-6,6v19.73H421.9a80.34,80.34,0,0,0-.233-22.693c-.021-.138-.045-.276-.074-.413a69.632,69.632,0,0,0-2.354-8.271c2.391-3.848,2.725-9.025,1.006-14.941l82.8-30.062a6,6,0,0,0,3.68-7.428ZM39.44,485.24H17V296.74H39.44Zm395.71-188.5h22.44v188.5H435.15Zm-1.739-102.546a6,6,0,0,0-3.173-3.651l-2.192-1.033,10.62-20.195,22.844,14.229-4.248,3.892-.319-.318a6,6,0,0,0-8.641.161L425.07,212.314,432.858,199A6,6,0,0,0,433.411,194.194Zm-25.074-.706,10.852,5.114-27.632,47.243a15.453,15.453,0,0,1-1.372-3.075Zm-34.643,44.281c.033-.044.048-.061.078-.106.377-.377,2.188-.711,5.416.244l-.858,2.328a17.193,17.193,0,0,0,1.149,8.195,37.886,37.886,0,0,0,8.648,12.312c3.09,3,9.237,8.029,16.111,8.533.04,0,.081.006.121.01l2.579-.31.072-.017,1.933-.7c.678,2.738.364,4.281.035,4.611a1.109,1.109,0,0,1-.106.081c-2.537,1.813-14.473.526-25.091-10.093S371.874,240.306,373.694,237.769Zm-16.729-.947c1.4.3,2.816.672,4.239,1.1-1.433,9.833,3.895,23.232,14.093,33.422,9.1,9.1,20.764,14.325,30.154,14.325a22.822,22.822,0,0,0,3.245-.232c.434,1.423.814,2.837,1.125,4.256a67.572,67.572,0,0,1-.08,20.778H275.93l33.4-55.329c.022-.036.042-.071.063-.107a35.535,35.535,0,0,1,17.028-15.292c-.318,12.539,4.928,26.279,14.065,35.055a6,6,0,1,0,8.313-8.654c-7.627-7.326-11.672-19.7-10.067-29.642l7.531-.461A76.806,76.806,0,0,1,356.965,236.822ZM259.66,45.38h8.625l.121,28.984a5.973,5.973,0,0,0-5.972,3.916L259.66,57.129Zm11.4,44.553,5.842,4.231-13.1,35.978a5.973,5.973,0,0,0-.352,1.671c-.015.231-.454,5.343-9.146,5.939ZM243.889,29.157,249.8,74.235l-3.351-15.781A6,6,0,0,0,240.58,53.7h-3.237l-4.292-20.276ZM225.7,65.7h10.02L247.461,121l-4.583,13.081a6.5,6.5,0,0,1-1.157-2.591,3.41,3.41,0,0,0-.139-.742Zm5.7,72.462a20.026,20.026,0,0,0,13.1,10.618,30.284,30.284,0,0,0,8.1,1.03c12.84,0,19.022-6.3,21.487-11.963,15.2,1.923,22.994,5.543,25.1,7.506-3.149,2.993-18.294,8.707-45.293,8.707-26.977,0-42.119-5.705-45.291-8.714C210.575,143.475,217.559,140.157,231.4,138.162ZM175.97,177.291A52.864,52.864,0,0,0,190.3,187.869c10.109,5.276,21.851,8.3,32.215,8.3a6,6,0,0,0,0-12c-8.368,0-18.336-2.594-26.669-6.942-5.383-2.8-9.705-6.169-12.086-9.311a77.148,77.148,0,0,1,17.622-13.06c10.126,8.169,33.428,11.2,52.513,11.2,19.1,0,42.426-3.039,52.532-11.213,18.637,10.059,30.807,25.27,33.993,42.522-8.787,8.636-18.911,12.982-45.725,13.965a6,6,0,0,0,.216,12c.074,0,.15,0,.224,0,21.773-.8,35.176-3.8,45.921-11.036a58.684,58.684,0,0,1-2.3,12.138c-2.032.207-4.023.492-5.941.869-.052.009-.1.017-.156.027l-.009,0c-14.97,2.988-26.283,10.951-33.624,23.665L261.913,310.47h-20.3c-.4-2.19-.863-4.382-1.412-6.552-6.267-24.759-23.439-45.954-38.61-60.683a5.985,5.985,0,0,0-2.655-8.484c-11.283-5.2-19.832-11.873-26.137-20.4q-.995-1.345-2-2.718c-1.415-1.929-2.881-3.9-4.38-5.875A53.985,53.985,0,0,1,175.97,177.291ZM83.415,215.664c4.376-8.411,12.546-14.622,24.281-18.461a6,6,0,0,0,3.92-7.292c-9.871-35.941-.178-40.243,3.012-41.659a16.353,16.353,0,0,1,6.7-1.271A37.171,37.171,0,0,1,134.841,150c-.023.092-.05.189-.081.28-.561-.136-1.433-.457-2.059-.687-2.927-1.076-7.824-2.875-12.884.1-5.507,3.241-11.292,10.472-7.567,26.515a74.336,74.336,0,0,0,5.682,15.546,6,6,0,0,0,6.4,3.145c13.374-2.42,22.2,4.853,31.321,16.518l.017.022c.031.039.059.081.091.119,1.825,2.345,3.627,4.8,5.37,7.176.68.927,1.355,1.849,2.028,2.758a71.461,71.461,0,0,0,16.7,16.172,40.943,40.943,0,0,1-8.348-1.238c-9.253-2.457-14.527-9.051-19.627-15.429-4.848-6.062-9.861-12.33-17.889-13.253a6,6,0,0,0-6.417,7.733c.333,1.076.743,2.2,1.178,3.393,1.9,5.212,4.267,11.7,1.672,18.393a42,42,0,0,0-3,15.053c-4.348-2.915-9.134-7.494-10.847-13.943a44.5,44.5,0,0,1-.58-4.657c-.736-7.662-1.652-17.2-8.888-19.493a7.19,7.19,0,0,0-6.058.755c-3.688,2.3-4.4,7.029-4.915,10.48-.04.267-.074.5-.106.693-2.377,6.958-5.65,16.379-12.691,24.622q-1.338,1.561-2.756,3.042a42.83,42.83,0,0,0,.125-19.438A27.531,27.531,0,0,1,83.415,215.664Zm-7.344,57.65a85.16,85.16,0,0,0,16.392-14.747,72.514,72.514,0,0,0,11.944-20.357,25,25,0,0,0,.574,3.23c2.742,10.321,10.012,17,15.629,20.779.105.071,10.6,7.086,15.636,5.776a6.092,6.092,0,0,0,4.362-7.332,28.547,28.547,0,0,1,1-19.064,29.107,29.107,0,0,0,1.926-11.829c5.555,6.9,12.587,14.982,24.892,18.25a53,53,0,0,0,21.8.967c14.658,13.64,32.338,34.16,38.341,57.874.3,1.2.572,2.4.823,3.609H67.151A153.61,153.61,0,0,1,76.071,273.314ZM423.15,485.24H51.44v-59.4H423.15Zm0-162.77v59.4H127.586a6,6,0,0,0,0,12H423.15v19.97H51.44V393.87h49.728a6,6,0,0,0,0-12H51.44v-59.4Zm-19.6-65.522a14.245,14.245,0,0,1-2.426-1.19l51.734-55.751,12.613,12.613Zm40.414-14.174,26.965-19.3,19.322-9.3,3.309,10.6Z"/></svg>
